<svg height="485pt" viewBox="-36 0 485 485.90403" width="485pt" xmlns="http://www.w3.org/2000/svg" xmlns:xlink="http://www.w3.org/1999/xlink"><linearGradient id="a"><stop offset=".322" stop-color="#a163f5"/><stop offset=".466" stop-color="#b074ee"/><stop offset=".752" stop-color="#d8a1dd"/><stop offset=".898" stop-color="#efbad3"/></linearGradient><linearGradient id="b" gradientTransform="matrix(1 0 0 -1 -49.147985 500.904026)" gradientUnits="userSpaceOnUse" x1="256" x2="256" xlink:href="#a" y1="8" y2="502.292"/><linearGradient id="c" gradientTransform="matrix(1 0 0 -1 -49.147985 500.904026)" gradientUnits="userSpaceOnUse" x1="256.211" x2="256.211" xlink:href="#a" y1="8" y2="502.292"/><path d="m365.253906 76.703125h-34.5v-36c-.058594-22.453125-18.246094-40.6445312-40.703125-40.69921875h-119.5c-.335937-.01562505-.671875.01562495-1 .10156275-.199219 0-.5.097656-.699219.097656h-.199218c-.300782.101563-.601563.101563-.898438.199219h-.101562c-.273438.085937-.539063.183594-.800782.300781h-.097656c-.285156.09375-.558594.226563-.800781.402344-.054687 0-.101563.042969-.101563.097656-.199218.101563-.5.300781-.699218.402344-.101563 0-.101563.097656-.199219.097656-.199219.101563-.402344.300781-.601563.402344l-.199218.199219c-.199219.199218-.5.398437-.699219.597656l-73.800781 73.800781h-41.199219c-26.507813.007813-47.996094 21.492187-48 48v231.902344c.003906 26.503906 21.492187 47.992187 48 48h148.398437v61.296875h-68.398437c-5.523437 0-10 4.480468-10 10 0 5.523437 4.476563 10 10 10h161.398437c5.523438 0 10-4.476563 10-10 0-5.519532-4.476562-10-10-10h-73v-61.398438h148.402344c26.503906-.007812 47.992188-21.492187 48-48v-231.898437c-.085937-26.460938-21.542968-47.871094-48-47.902344zm-204.703125-42.699219v22.800782c-.019531 11.421874-9.277343 20.675781-20.699219 20.699218h-22.800781zm-57.597656 63.601563h36.898437c22.457032-.054688 40.644532-18.246094 40.699219-40.703125v-37h109.5c11.425781.023437 20.679688 9.277344 20.703125 20.703125v272.398437h-207.800781zm-82.5 27c.042969-15.445313 12.554687-27.957031 28-28h34.5v216.296875h-62.5zm372.800781 231.898437c-.046875 15.445313-12.554687 27.957032-28 28h-316.800781c-15.460937-.011718-27.992187-12.539062-28-28v-23.5h372.699219zm0-43.5h-62.402344v-216.300781h34.5c15.445313.046875 27.957032 12.554687 28 28v188.300781zm0 0" fill="url(#b)"/><path d="m262.253906 196.105469-49-41.101563c-.101562-.101562-.203125-.199218-.300781-.199218-.101563-.101563-.300781-.199219-.402344-.300782-.097656-.101562-.199219-.101562-.296875-.199218-.101562-.101563-.300781-.199219-.402344-.300782-.097656-.101562-.300781-.101562-.398437-.199218-.101563-.101563-.300781-.101563-.402344-.199219-.097656-.101563-.296875-.101563-.398437-.203125-.199219-.097656-.300782-.097656-.5-.199219-.101563 0-.300782-.097656-.398438-.097656-.203125 0-.300781-.101563-.5-.101563-.101562 0-.300781-.101562-.402344-.101562-.199218 0-.398437-.097656-.597656-.097656h-.300781c-.628906-.101563-1.273437-.101563-1.902344 0h-.296875c-.203125 0-.402344.097656-.601562.097656-.101563 0-.300782.101562-.398438.101562-.203125 0-.300781.101563-.5.101563-.101562 0-.300781.097656-.402344.097656-.199218.101563-.300781.101563-.5.199219-.097656.101562-.300781.101562-.398437.203125-.199219.097656-.300781.097656-.402344.199219-.097656.097656-.296875.097656-.398437.199218-.152344.074219-.285156.175782-.398438.300782-.101562.097656-.203125.097656-.300781.199218-.101563.101563-.300781.199219-.402344.300782-.097656.097656-.199219.199218-.296875.199218l-49 41.101563c-4.226562 3.5625-4.765625 9.875-1.203125 14.097656 3.5625 4.226563 9.875 4.761719 14.101563 1.199219l32.601562-27.296875v85c0 5.519531 4.476563 10 10 10 5.519532 0 10-4.480469 10-10v-85l32.597656 27.296875c4.257813 3.519531 10.558594 2.9375 14.101563-1.296875 3.210937-4.386719 2.464844-10.511719-1.699219-14zm0 0" fill="url(#c)"/></svg>